<?xml version="1.0" encoding="utf-8"?>
<!-- Generator: Adobe Illustrator 26.3.1, SVG Export Plug-In . SVG Version: 6.00 Build 0)  -->
<svg version="1.1" id="Layer_1" xmlns="http://www.w3.org/2000/svg" xmlns:xlink="http://www.w3.org/1999/xlink" x="0px" y="0px"
	 viewBox="0 0 24 24" style="enable-background:new 0 0 24 24;" xml:space="preserve">
<path d="M18.7,7.2c-0.4-0.4-1-0.4-1.4,0c0,0,0,0,0,0l-7.4,7.5l-3.1-3.1c-0.4-0.4-1.1-0.4-1.4,0c-0.4,0.4-0.4,1.1,0,1.4l3.8,3.8
	c0.4,0.4,1,0.4,1.4,0c0,0,0,0,0,0l8.2-8.2C19.1,8.3,19.1,7.7,18.7,7.2C18.8,7.2,18.7,7.2,18.7,7.2z"/>
</svg>
